<?xml version="1.0" standalone="no"?>
<!DOCTYPE svg PUBLIC "-//W3C//DTD SVG 20010904//EN"
 "http://www.w3.org/TR/2001/REC-SVG-20010904/DTD/svg10.dtd">
<svg version="1.0" xmlns="http://www.w3.org/2000/svg"
 width="265.000000pt" height="265.000000pt" viewBox="0 0 265.000000 265.000000"
 preserveAspectRatio="xMidYMid meet">
<metadata>
Created by potrace 1.11, written by Peter Selinger 2001-2013
</metadata>
<g transform="translate(0.000000,265.000000) scale(0.100000,-0.100000)"
fill="#000000" stroke="none">
<path d="M416 2178 c-20 -28 -20 -48 -2 -74 12 -15 30 -20 102 -24 l88 -5 23
-95 c22 -88 57 -265 118 -598 14 -74 38 -202 54 -285 16 -84 32 -169 36 -190
9 -53 36 -77 88 -77 l42 -1 -40 -21 c-101 -52 -150 -139 -142 -251 3 -55 10
-77 34 -110 94 -134 269 -152 382 -39 121 122 85 318 -74 400 l-40 21 380 0
c376 0 380 -1 339 -19 -49 -22 -106 -78 -130 -128 -21 -44 -24 -141 -6 -192
15 -44 73 -105 126 -133 56 -29 156 -29 211 0 90 48 139 127 140 223 0 104
-58 191 -156 234 l-34 14 41 1 c68 2 84 22 105 137 10 54 40 219 68 365 113
595 111 578 85 603 -14 14 -96 16 -754 16 l-738 0 -27 111 c-15 60 -34 117
-42 125 -11 11 -44 14 -138 14 -117 0 -125 -1 -139 -22z m680 -1494 c78 -52
69 -170 -16 -214 -49 -25 -61 -25 -110 0 -118 60 -79 230 53 230 28 0 58 -7
73 -16z m884 -11 c73 -66 48 -182 -46 -213 -61 -20 -128 17 -153 83 -16 41 2
100 40 131 44 37 117 37 159 -1z"/>
</g>
</svg>
